# xmcd
#
# Track frame offsets:
#	150
#	19197
#	34496
#	47541
#	64111
#	82444
#	95779
#	114012
#	135672
#	147510
#	165869
#	181081
#	201859
#	220185
#	234587
#	249921
#	265428
#	279852
#	295961
#	311721
#
# Disc length: 4340 seconds
#
# Revision: 1
# Processed by: cddbd v1.5.1PL0 Copyright (c) Steve Scherf et al.
# Submitted via: EasyCDDAExtractor 5.0.6
#
DISCID=2710f214
DTITLE=Chrystian e Ralf - As 20 Mais
DYEAR=2004
DGENRE=Sertanejo
TTITLE0=Um Cantinho do Seu Coração
TTITLE1=Onde Você For Eu Vou
TTITLE2=A Semente do Amor
TTITLE3=Nova York
TTITLE4=O Que Tiver Que Vir Virá
TTITLE5=Vira Virou
TTITLE6=O Amor Não É Paixão
TTITLE7=Olhos de Luar
TTITLE8=Saudade
TTITLE9=Esse Amor Que Me Mata
TTITLE10=Cheiro de Shampoo
TTITLE11=Yolanda
TTITLE12=Entre Ele e Eu
TTITLE13=Chora Peito
TTITLE14=Encarando a Saudade
TTITLE15=Loucura Demais
TTITLE16=Charly
TTITLE17=Brigas
TTITLE18=É Desse jeito Que a Gente Se Ama
TTITLE19=Camisa Manchada
EXTD=
EXTT0=
EXTT1=
EXTT2=
EXTT3=
EXTT4=
EXTT5=
EXTT6=
EXTT7=
EXTT8=
EXTT9=
EXTT10=
EXTT11=
EXTT12=
EXTT13=
EXTT14=
EXTT15=
EXTT16=
EXTT17=
EXTT18=
EXTT19=
PLAYORDER=
